<mxfile host="Electron" modified="2023-06-14T08:50:58.371Z" agent="Mozilla/5.0 (Macintosh; Intel Mac OS X 10_15_7) AppleWebKit/537.36 (KHTML, like Gecko) draw.io/21.1.2 Chrome/106.0.5249.199 Electron/21.4.3 Safari/537.36" etag="jC2IIv9MdXWlItuNcWnq" version="21.1.2" type="device">
  <diagram name="Page-1" id="v4wPnGv_ITfz7817NlGE">
    <mxGraphModel dx="3707" dy="2983" grid="1" gridSize="10" guides="1" tooltips="1" connect="1" arrows="1" fold="1" page="1" pageScale="1" pageWidth="827" pageHeight="1169" math="0" shadow="0">
      <root>
        <mxCell id="0" />
        <mxCell id="1" parent="0" />
        <mxCell id="yQo3-17g9ldrHq3aOYve-62" style="edgeStyle=none;rounded=0;orthogonalLoop=1;jettySize=auto;html=1;entryX=0;entryY=0.5;entryDx=0;entryDy=0;endArrow=ERoneToMany;endFill=0;" edge="1" parent="1" source="3LCzp29sH1XEy0D0rW8l-1" target="yQo3-17g9ldrHq3aOYve-60">
          <mxGeometry relative="1" as="geometry" />
        </mxCell>
        <mxCell id="3LCzp29sH1XEy0D0rW8l-1" value="&lt;font color=&quot;#080808&quot; style=&quot;font-size: 18px;&quot;&gt;&lt;b&gt;user&lt;/b&gt;&lt;/font&gt;" style="rounded=0;whiteSpace=wrap;html=1;fillColor=#ffcd28;strokeColor=#d79b00;gradientColor=#ffa500;glass=1;shadow=1;sketch=1;curveFitting=1;jiggle=2;" parent="1" vertex="1">
          <mxGeometry x="144" y="-822.5" width="150" height="70" as="geometry" />
        </mxCell>
        <mxCell id="3LCzp29sH1XEy0D0rW8l-2" value="&lt;u&gt;user_id&lt;/u&gt;" style="ellipse;whiteSpace=wrap;html=1;fillColor=#60a917;fontColor=#ffffff;strokeColor=#2D7600;" parent="1" vertex="1">
          <mxGeometry x="-165" y="-1055" width="60" height="50" as="geometry" />
        </mxCell>
        <mxCell id="3LCzp29sH1XEy0D0rW8l-3" value="name" style="ellipse;whiteSpace=wrap;html=1;fillColor=#1ba1e2;strokeColor=#006EAF;fontColor=#ffffff;" parent="1" vertex="1">
          <mxGeometry x="-90" y="-1060" width="60" height="40" as="geometry" />
        </mxCell>
        <mxCell id="3LCzp29sH1XEy0D0rW8l-4" value="last_name" style="ellipse;whiteSpace=wrap;html=1;fillColor=#647687;fontColor=#ffffff;strokeColor=#314354;" parent="1" vertex="1">
          <mxGeometry x="-6" y="-1060" width="70" height="50" as="geometry" />
        </mxCell>
        <mxCell id="3LCzp29sH1XEy0D0rW8l-5" value="type" style="ellipse;whiteSpace=wrap;html=1;fillColor=#76608a;fontColor=#ffffff;strokeColor=#432D57;" parent="1" vertex="1">
          <mxGeometry x="74" y="-1040" width="56" height="40" as="geometry" />
        </mxCell>
        <mxCell id="3LCzp29sH1XEy0D0rW8l-6" value="email" style="ellipse;whiteSpace=wrap;html=1;fillColor=#6d8764;fontColor=#ffffff;strokeColor=#3A5431;" parent="1" vertex="1">
          <mxGeometry x="130" y="-1020" width="55" height="40" as="geometry" />
        </mxCell>
        <mxCell id="3LCzp29sH1XEy0D0rW8l-7" value="password" style="ellipse;whiteSpace=wrap;html=1;fillColor=#6d8764;fontColor=#ffffff;strokeColor=#3A5431;" parent="1" vertex="1">
          <mxGeometry x="185" y="-995" width="72" height="40" as="geometry" />
        </mxCell>
        <mxCell id="3LCzp29sH1XEy0D0rW8l-8" value="created_at" style="ellipse;whiteSpace=wrap;html=1;fillColor=#647687;fontColor=#ffffff;strokeColor=#314354;" parent="1" vertex="1">
          <mxGeometry x="-198" y="-1000" width="66" height="45" as="geometry" />
        </mxCell>
        <mxCell id="3LCzp29sH1XEy0D0rW8l-9" value="updated_at" style="ellipse;whiteSpace=wrap;html=1;fillColor=#647687;fontColor=#ffffff;strokeColor=#314354;" parent="1" vertex="1">
          <mxGeometry x="-205" y="-940" width="80" height="40" as="geometry" />
        </mxCell>
        <mxCell id="yQo3-17g9ldrHq3aOYve-57" style="edgeStyle=none;rounded=0;orthogonalLoop=1;jettySize=auto;html=1;entryX=1;entryY=0;entryDx=0;entryDy=0;endArrow=none;endFill=0;" edge="1" parent="1" source="3LCzp29sH1XEy0D0rW8l-10" target="3LCzp29sH1XEy0D0rW8l-1">
          <mxGeometry relative="1" as="geometry" />
        </mxCell>
        <mxCell id="3LCzp29sH1XEy0D0rW8l-10" value="gender" style="ellipse;whiteSpace=wrap;html=1;fillColor=#647687;fontColor=#ffffff;strokeColor=#314354;" parent="1" vertex="1">
          <mxGeometry x="240" y="-960" width="62" height="40" as="geometry" />
        </mxCell>
        <mxCell id="3LCzp29sH1XEy0D0rW8l-11" value="is_deleted" style="ellipse;whiteSpace=wrap;html=1;fillColor=#a20025;fontColor=#ffffff;strokeColor=#6F0000;" parent="1" vertex="1">
          <mxGeometry x="-200" y="-880" width="70" height="45" as="geometry" />
        </mxCell>
        <mxCell id="3LCzp29sH1XEy0D0rW8l-12" value="birth_date" style="ellipse;whiteSpace=wrap;html=1;fillColor=#647687;fontColor=#ffffff;strokeColor=#314354;" parent="1" vertex="1">
          <mxGeometry x="324.5" y="-870" width="61" height="35" as="geometry" />
        </mxCell>
        <mxCell id="yQo3-17g9ldrHq3aOYve-59" style="edgeStyle=none;rounded=0;orthogonalLoop=1;jettySize=auto;html=1;entryX=1;entryY=0.5;entryDx=0;entryDy=0;endArrow=none;endFill=0;" edge="1" parent="1" source="3LCzp29sH1XEy0D0rW8l-13" target="3LCzp29sH1XEy0D0rW8l-1">
          <mxGeometry relative="1" as="geometry" />
        </mxCell>
        <mxCell id="3LCzp29sH1XEy0D0rW8l-13" value="skin_tone" style="ellipse;whiteSpace=wrap;html=1;fillColor=#647687;fontColor=#ffffff;strokeColor=#314354;" parent="1" vertex="1">
          <mxGeometry x="340" y="-835" width="65" height="32.5" as="geometry" />
        </mxCell>
        <mxCell id="3LCzp29sH1XEy0D0rW8l-14" value="" style="endArrow=none;html=1;rounded=0;fontSize=18;entryX=0;entryY=0.25;entryDx=0;entryDy=0;exitX=1.007;exitY=0.41;exitDx=0;exitDy=0;exitPerimeter=0;" parent="1" source="3LCzp29sH1XEy0D0rW8l-11" target="3LCzp29sH1XEy0D0rW8l-1" edge="1">
          <mxGeometry width="50" height="50" relative="1" as="geometry">
            <mxPoint x="330" y="-600" as="sourcePoint" />
            <mxPoint x="380" y="-650" as="targetPoint" />
          </mxGeometry>
        </mxCell>
        <mxCell id="3LCzp29sH1XEy0D0rW8l-15" value="" style="endArrow=none;html=1;rounded=0;fontSize=18;entryX=-0.024;entryY=0.152;entryDx=0;entryDy=0;entryPerimeter=0;exitX=1;exitY=0.5;exitDx=0;exitDy=0;" parent="1" source="3LCzp29sH1XEy0D0rW8l-9" target="3LCzp29sH1XEy0D0rW8l-1" edge="1">
          <mxGeometry width="50" height="50" relative="1" as="geometry">
            <mxPoint x="30" y="-850" as="sourcePoint" />
            <mxPoint x="140" y="-790" as="targetPoint" />
            <Array as="points" />
          </mxGeometry>
        </mxCell>
        <mxCell id="3LCzp29sH1XEy0D0rW8l-16" value="" style="endArrow=none;html=1;rounded=0;fontSize=18;exitX=0.947;exitY=0.848;exitDx=0;exitDy=0;exitPerimeter=0;" parent="1" source="3LCzp29sH1XEy0D0rW8l-8" target="3LCzp29sH1XEy0D0rW8l-1" edge="1">
          <mxGeometry width="50" height="50" relative="1" as="geometry">
            <mxPoint x="30.000000000023192" y="-777.5" as="sourcePoint" />
            <mxPoint x="155.00000000000045" y="-777.5" as="targetPoint" />
            <Array as="points" />
          </mxGeometry>
        </mxCell>
        <mxCell id="3LCzp29sH1XEy0D0rW8l-17" value="" style="endArrow=none;html=1;rounded=0;fontSize=18;exitX=1;exitY=1;exitDx=0;exitDy=0;entryX=0.25;entryY=0;entryDx=0;entryDy=0;" parent="1" source="3LCzp29sH1XEy0D0rW8l-2" target="3LCzp29sH1XEy0D0rW8l-1" edge="1">
          <mxGeometry width="50" height="50" relative="1" as="geometry">
            <mxPoint x="30.04000000000042" y="-829.9850000000001" as="sourcePoint" />
            <mxPoint x="155.00000000000045" y="-795" as="targetPoint" />
            <Array as="points" />
          </mxGeometry>
        </mxCell>
        <mxCell id="3LCzp29sH1XEy0D0rW8l-18" value="" style="endArrow=none;html=1;rounded=0;fontSize=18;exitX=0.725;exitY=1.045;exitDx=0;exitDy=0;exitPerimeter=0;entryX=0.42;entryY=0.01;entryDx=0;entryDy=0;entryPerimeter=0;" parent="1" source="3LCzp29sH1XEy0D0rW8l-3" target="3LCzp29sH1XEy0D0rW8l-1" edge="1">
          <mxGeometry width="50" height="50" relative="1" as="geometry">
            <mxPoint x="68.28427124746258" y="-887.3223304703363" as="sourcePoint" />
            <mxPoint x="155" y="-850" as="targetPoint" />
            <Array as="points" />
          </mxGeometry>
        </mxCell>
        <mxCell id="3LCzp29sH1XEy0D0rW8l-19" value="" style="endArrow=none;html=1;rounded=0;fontSize=18;entryX=0.5;entryY=0;entryDx=0;entryDy=0;exitX=0.5;exitY=1;exitDx=0;exitDy=0;" parent="1" source="3LCzp29sH1XEy0D0rW8l-4" target="3LCzp29sH1XEy0D0rW8l-1" edge="1">
          <mxGeometry width="50" height="50" relative="1" as="geometry">
            <mxPoint x="220" y="-920" as="sourcePoint" />
            <mxPoint x="168.05000000000018" y="-813.97" as="targetPoint" />
            <Array as="points" />
          </mxGeometry>
        </mxCell>
        <mxCell id="3LCzp29sH1XEy0D0rW8l-20" value="" style="endArrow=none;html=1;rounded=0;fontSize=18;exitX=0.345;exitY=1.037;exitDx=0;exitDy=0;entryX=0.664;entryY=0.01;entryDx=0;entryDy=0;exitPerimeter=0;entryPerimeter=0;" parent="1" source="3LCzp29sH1XEy0D0rW8l-5" target="3LCzp29sH1XEy0D0rW8l-1" edge="1">
          <mxGeometry width="50" height="50" relative="1" as="geometry">
            <mxPoint x="210.00000000000045" y="-920" as="sourcePoint" />
            <mxPoint x="206.75000000000045" y="-816.49" as="targetPoint" />
            <Array as="points" />
          </mxGeometry>
        </mxCell>
        <mxCell id="3LCzp29sH1XEy0D0rW8l-21" value="" style="endArrow=none;html=1;rounded=0;fontSize=18;exitX=0.361;exitY=1.058;exitDx=0;exitDy=0;entryX=0.859;entryY=-0.038;entryDx=0;entryDy=0;exitPerimeter=0;entryPerimeter=0;" parent="1" source="3LCzp29sH1XEy0D0rW8l-6" target="3LCzp29sH1XEy0D0rW8l-1" edge="1">
          <mxGeometry width="50" height="50" relative="1" as="geometry">
            <mxPoint x="281.7157287525388" y="-927.3223304703365" as="sourcePoint" />
            <mxPoint x="230.00000000000045" y="-812.5" as="targetPoint" />
            <Array as="points" />
          </mxGeometry>
        </mxCell>
        <mxCell id="3LCzp29sH1XEy0D0rW8l-22" value="" style="endArrow=none;html=1;rounded=0;fontSize=18;exitX=0.266;exitY=0.954;exitDx=0;exitDy=0;entryX=1;entryY=0;entryDx=0;entryDy=0;exitPerimeter=0;" parent="1" source="3LCzp29sH1XEy0D0rW8l-7" target="3LCzp29sH1XEy0D0rW8l-1" edge="1">
          <mxGeometry width="50" height="50" relative="1" as="geometry">
            <mxPoint x="361.7157287525388" y="-887.3223304703365" as="sourcePoint" />
            <mxPoint x="300" y="-810" as="targetPoint" />
            <Array as="points" />
          </mxGeometry>
        </mxCell>
        <mxCell id="3LCzp29sH1XEy0D0rW8l-24" value="" style="endArrow=none;html=1;rounded=0;fontSize=18;exitX=0;exitY=0.5;exitDx=0;exitDy=0;entryX=1;entryY=0.5;entryDx=0;entryDy=0;" parent="1" source="3LCzp29sH1XEy0D0rW8l-12" target="3LCzp29sH1XEy0D0rW8l-1" edge="1">
          <mxGeometry width="50" height="50" relative="1" as="geometry">
            <mxPoint x="430.00000000000045" y="-795" as="sourcePoint" />
            <mxPoint x="300" y="-780" as="targetPoint" />
            <Array as="points" />
          </mxGeometry>
        </mxCell>
        <mxCell id="3LCzp29sH1XEy0D0rW8l-26" value="" style="endArrow=none;html=1;rounded=0;fontSize=18;exitX=1;exitY=0;exitDx=0;exitDy=0;entryX=0.003;entryY=0.926;entryDx=0;entryDy=0;entryPerimeter=0;" parent="1" source="3LCzp29sH1XEy0D0rW8l-30" target="3LCzp29sH1XEy0D0rW8l-1" edge="1">
          <mxGeometry width="50" height="50" relative="1" as="geometry">
            <mxPoint x="92.80000000000018" y="-737.6800000000001" as="sourcePoint" />
            <mxPoint x="130" y="-750" as="targetPoint" />
          </mxGeometry>
        </mxCell>
        <mxCell id="3LCzp29sH1XEy0D0rW8l-28" value="is_blocked" style="ellipse;whiteSpace=wrap;html=1;fillColor=#a20025;fontColor=#ffffff;strokeColor=#6F0000;" parent="1" vertex="1">
          <mxGeometry x="-195" y="-822.5" width="75" height="45" as="geometry" />
        </mxCell>
        <mxCell id="3LCzp29sH1XEy0D0rW8l-29" value="" style="endArrow=none;html=1;rounded=0;fontSize=18;exitX=1.006;exitY=0.297;exitDx=0;exitDy=0;entryX=-0.002;entryY=0.629;entryDx=0;entryDy=0;entryPerimeter=0;exitPerimeter=0;" parent="1" source="3LCzp29sH1XEy0D0rW8l-28" target="3LCzp29sH1XEy0D0rW8l-1" edge="1">
          <mxGeometry width="50" height="50" relative="1" as="geometry">
            <mxPoint x="116.32000000000016" y="-719.3499999999999" as="sourcePoint" />
            <mxPoint x="165" y="-740" as="targetPoint" />
          </mxGeometry>
        </mxCell>
        <mxCell id="3LCzp29sH1XEy0D0rW8l-30" value="avatar" style="ellipse;whiteSpace=wrap;html=1;fillColor=#6a00ff;fontColor=#ffffff;strokeColor=#3700CC;" parent="1" vertex="1">
          <mxGeometry x="-180" y="-770" width="75" height="40" as="geometry" />
        </mxCell>
        <mxCell id="3LCzp29sH1XEy0D0rW8l-32" value="&lt;font color=&quot;#000000&quot;&gt;client&lt;/font&gt;" style="whiteSpace=wrap;html=1;align=center;fillColor=#e6d0de;strokeColor=#996185;gradientColor=#d5739d;sketch=1;curveFitting=1;jiggle=2;shadow=1;glass=1;" parent="1" vertex="1">
          <mxGeometry x="-67.5" y="-645" width="115" height="50" as="geometry" />
        </mxCell>
        <mxCell id="3LCzp29sH1XEy0D0rW8l-33" value="&lt;font color=&quot;#424242&quot;&gt;professional&lt;/font&gt;" style="whiteSpace=wrap;html=1;align=center;fillColor=#dae8fc;strokeColor=#6c8ebf;gradientColor=default;sketch=1;curveFitting=1;jiggle=2;shadow=1;" parent="1" vertex="1">
          <mxGeometry x="161" y="-680" width="111" height="50" as="geometry" />
        </mxCell>
        <mxCell id="3LCzp29sH1XEy0D0rW8l-34" value="&lt;font color=&quot;#000000&quot; style=&quot;font-size: 13px;&quot;&gt;&lt;b&gt;admin&lt;/b&gt;&lt;/font&gt;" style="rounded=0;whiteSpace=wrap;html=1;fillColor=#f8cecc;strokeColor=#b85450;shadow=1;sketch=1;curveFitting=1;jiggle=2;gradientColor=default;glass=0;" parent="1" vertex="1">
          <mxGeometry x="380" y="-650" width="120" height="50" as="geometry" />
        </mxCell>
        <mxCell id="3LCzp29sH1XEy0D0rW8l-35" style="rounded=0;orthogonalLoop=1;jettySize=auto;html=1;exitX=0.25;exitY=1;exitDx=0;exitDy=0;entryX=0.66;entryY=0.025;entryDx=0;entryDy=0;endArrow=none;endFill=0;entryPerimeter=0;" parent="1" source="3LCzp29sH1XEy0D0rW8l-1" target="3LCzp29sH1XEy0D0rW8l-32" edge="1">
          <mxGeometry relative="1" as="geometry">
            <mxPoint x="220" y="-752.5" as="sourcePoint" />
            <mxPoint x="84" y="-587.5" as="targetPoint" />
          </mxGeometry>
        </mxCell>
        <mxCell id="3LCzp29sH1XEy0D0rW8l-36" style="rounded=0;orthogonalLoop=1;jettySize=auto;html=1;entryX=0.5;entryY=0;entryDx=0;entryDy=0;endArrow=none;endFill=0;exitX=0.5;exitY=1;exitDx=0;exitDy=0;" parent="1" source="3LCzp29sH1XEy0D0rW8l-1" target="3LCzp29sH1XEy0D0rW8l-33" edge="1">
          <mxGeometry relative="1" as="geometry">
            <mxPoint x="200" y="-740" as="sourcePoint" />
            <mxPoint x="11" y="-629" as="targetPoint" />
          </mxGeometry>
        </mxCell>
        <mxCell id="3LCzp29sH1XEy0D0rW8l-37" style="rounded=0;orthogonalLoop=1;jettySize=auto;html=1;entryX=0.25;entryY=0;entryDx=0;entryDy=0;endArrow=none;endFill=0;exitX=0.82;exitY=0.993;exitDx=0;exitDy=0;exitPerimeter=0;" parent="1" source="3LCzp29sH1XEy0D0rW8l-1" target="3LCzp29sH1XEy0D0rW8l-34" edge="1">
          <mxGeometry relative="1" as="geometry">
            <mxPoint x="229" y="-742.5" as="sourcePoint" />
            <mxPoint x="245" y="-630" as="targetPoint" />
          </mxGeometry>
        </mxCell>
        <mxCell id="3LCzp29sH1XEy0D0rW8l-39" value="" style="edgeStyle=orthogonalEdgeStyle;rounded=0;orthogonalLoop=1;jettySize=auto;html=1;endArrow=ERmany;endFill=0;" parent="1" source="3LCzp29sH1XEy0D0rW8l-38" target="3LCzp29sH1XEy0D0rW8l-33" edge="1">
          <mxGeometry relative="1" as="geometry" />
        </mxCell>
        <mxCell id="3LCzp29sH1XEy0D0rW8l-47" value="" style="edgeStyle=orthogonalEdgeStyle;rounded=0;orthogonalLoop=1;jettySize=auto;html=1;endArrow=ERmany;endFill=0;" parent="1" source="3LCzp29sH1XEy0D0rW8l-38" target="3LCzp29sH1XEy0D0rW8l-40" edge="1">
          <mxGeometry relative="1" as="geometry" />
        </mxCell>
        <mxCell id="3LCzp29sH1XEy0D0rW8l-38" value="has" style="rhombus;whiteSpace=wrap;html=1;fillColor=#f5f5f5;fontColor=#333333;strokeColor=#666666;" parent="1" vertex="1">
          <mxGeometry x="156.5" y="-565" width="120" height="90" as="geometry" />
        </mxCell>
        <mxCell id="3LCzp29sH1XEy0D0rW8l-40" value="&lt;font color=&quot;#000000&quot;&gt;beauty_salon&lt;/font&gt;" style="rounded=0;whiteSpace=wrap;html=1;fillColor=#dae8fc;gradientColor=#7ea6e0;strokeColor=#6c8ebf;" parent="1" vertex="1">
          <mxGeometry x="154.5" y="-410" width="124" height="52.5" as="geometry" />
        </mxCell>
        <mxCell id="yQo3-17g9ldrHq3aOYve-80" style="edgeStyle=none;rounded=0;orthogonalLoop=1;jettySize=auto;html=1;entryX=1;entryY=0;entryDx=0;entryDy=0;endArrow=none;endFill=0;" edge="1" parent="1" source="3LCzp29sH1XEy0D0rW8l-41" target="3LCzp29sH1XEy0D0rW8l-40">
          <mxGeometry relative="1" as="geometry" />
        </mxCell>
        <mxCell id="3LCzp29sH1XEy0D0rW8l-41" value="&lt;u&gt;beauty_salon_id&lt;/u&gt;" style="ellipse;whiteSpace=wrap;html=1;fillColor=#60a917;fontColor=#ffffff;strokeColor=#2D7600;" parent="1" vertex="1">
          <mxGeometry x="315" y="-473.75" width="95" height="50" as="geometry" />
        </mxCell>
        <mxCell id="yQo3-17g9ldrHq3aOYve-85" style="edgeStyle=none;rounded=0;orthogonalLoop=1;jettySize=auto;html=1;exitX=0;exitY=0.5;exitDx=0;exitDy=0;entryX=0.75;entryY=1;entryDx=0;entryDy=0;endArrow=none;endFill=0;" edge="1" parent="1" source="3LCzp29sH1XEy0D0rW8l-42" target="3LCzp29sH1XEy0D0rW8l-40">
          <mxGeometry relative="1" as="geometry" />
        </mxCell>
        <mxCell id="3LCzp29sH1XEy0D0rW8l-42" value="beauty_salon_name" style="ellipse;whiteSpace=wrap;html=1;fillColor=#1ba1e2;fontColor=#ffffff;strokeColor=#006EAF;" parent="1" vertex="1">
          <mxGeometry x="322" y="-280" width="91.44" height="50" as="geometry" />
        </mxCell>
        <mxCell id="yQo3-17g9ldrHq3aOYve-84" style="edgeStyle=none;rounded=0;orthogonalLoop=1;jettySize=auto;html=1;entryX=1;entryY=0.75;entryDx=0;entryDy=0;endArrow=none;endFill=0;" edge="1" parent="1" source="3LCzp29sH1XEy0D0rW8l-43" target="3LCzp29sH1XEy0D0rW8l-40">
          <mxGeometry relative="1" as="geometry" />
        </mxCell>
        <mxCell id="3LCzp29sH1XEy0D0rW8l-43" value="address" style="ellipse;whiteSpace=wrap;html=1;fillColor=#647687;fontColor=#ffffff;strokeColor=#314354;" parent="1" vertex="1">
          <mxGeometry x="315" y="-350" width="97" height="50" as="geometry" />
        </mxCell>
        <mxCell id="3LCzp29sH1XEy0D0rW8l-49" value="" style="edgeStyle=orthogonalEdgeStyle;rounded=0;orthogonalLoop=1;jettySize=auto;html=1;endArrow=ERmany;endFill=0;" parent="1" source="3LCzp29sH1XEy0D0rW8l-48" target="3LCzp29sH1XEy0D0rW8l-32" edge="1">
          <mxGeometry relative="1" as="geometry" />
        </mxCell>
        <mxCell id="3LCzp29sH1XEy0D0rW8l-51" value="" style="edgeStyle=orthogonalEdgeStyle;rounded=0;orthogonalLoop=1;jettySize=auto;html=1;endArrow=ERmany;endFill=0;" parent="1" source="3LCzp29sH1XEy0D0rW8l-48" target="3LCzp29sH1XEy0D0rW8l-40" edge="1">
          <mxGeometry relative="1" as="geometry" />
        </mxCell>
        <mxCell id="3LCzp29sH1XEy0D0rW8l-48" value="is_assigned" style="shape=rhombus;perimeter=rhombusPerimeter;whiteSpace=wrap;html=1;align=center;fillColor=#f5f5f5;fontColor=#333333;strokeColor=#666666;" parent="1" vertex="1">
          <mxGeometry x="-70" y="-423.75" width="120" height="80" as="geometry" />
        </mxCell>
        <mxCell id="3LCzp29sH1XEy0D0rW8l-64" value="" style="edgeStyle=orthogonalEdgeStyle;rounded=0;orthogonalLoop=1;jettySize=auto;html=1;endArrow=ERmany;endFill=0;" parent="1" source="3LCzp29sH1XEy0D0rW8l-52" target="3LCzp29sH1XEy0D0rW8l-40" edge="1">
          <mxGeometry relative="1" as="geometry" />
        </mxCell>
        <mxCell id="3LCzp29sH1XEy0D0rW8l-52" value="does" style="rhombus;whiteSpace=wrap;html=1;fillColor=#f5f5f5;fontColor=#333333;strokeColor=#666666;" parent="1" vertex="1">
          <mxGeometry x="156.5" y="-265" width="120" height="80" as="geometry" />
        </mxCell>
        <mxCell id="3LCzp29sH1XEy0D0rW8l-53" value="&lt;font color=&quot;#000000&quot;&gt;service&lt;/font&gt;" style="rounded=0;whiteSpace=wrap;html=1;fillColor=#cce5ff;strokeColor=#36393d;gradientColor=default;sketch=1;curveFitting=1;jiggle=2;shadow=1;" parent="1" vertex="1">
          <mxGeometry x="166.5" y="-105" width="100" height="55" as="geometry" />
        </mxCell>
        <mxCell id="3LCzp29sH1XEy0D0rW8l-55" value="service_name" style="ellipse;whiteSpace=wrap;html=1;fillColor=#1ba1e2;fontColor=#ffffff;strokeColor=#006EAF;" parent="1" vertex="1">
          <mxGeometry x="98.5" y="-165" width="80" height="50" as="geometry" />
        </mxCell>
        <mxCell id="3LCzp29sH1XEy0D0rW8l-57" value="" style="edgeStyle=orthogonalEdgeStyle;rounded=0;orthogonalLoop=1;jettySize=auto;html=1;fontSize=18;endArrow=ERoneToMany;endFill=0;exitX=0.5;exitY=1;exitDx=0;exitDy=0;" parent="1" source="3LCzp29sH1XEy0D0rW8l-52" target="3LCzp29sH1XEy0D0rW8l-53" edge="1">
          <mxGeometry relative="1" as="geometry">
            <mxPoint x="227" y="-149.99999999999977" as="sourcePoint" />
          </mxGeometry>
        </mxCell>
        <mxCell id="3LCzp29sH1XEy0D0rW8l-59" value="" style="endArrow=none;html=1;rounded=0;entryX=0.25;entryY=0;entryDx=0;entryDy=0;" parent="1" source="3LCzp29sH1XEy0D0rW8l-55" target="3LCzp29sH1XEy0D0rW8l-53" edge="1">
          <mxGeometry width="50" height="50" relative="1" as="geometry">
            <mxPoint x="197" y="18" as="sourcePoint" />
            <mxPoint x="207" y="57.5" as="targetPoint" />
          </mxGeometry>
        </mxCell>
        <mxCell id="3LCzp29sH1XEy0D0rW8l-66" value="" style="edgeStyle=orthogonalEdgeStyle;rounded=0;orthogonalLoop=1;jettySize=auto;html=1;endArrow=ERone;endFill=0;" parent="1" source="3LCzp29sH1XEy0D0rW8l-65" target="3LCzp29sH1XEy0D0rW8l-32" edge="1">
          <mxGeometry relative="1" as="geometry" />
        </mxCell>
        <mxCell id="23NOyq48g4CdFFDB8XeQ-4" style="edgeStyle=orthogonalEdgeStyle;rounded=0;orthogonalLoop=1;jettySize=auto;html=1;exitX=0.5;exitY=1;exitDx=0;exitDy=0;entryX=0.5;entryY=0;entryDx=0;entryDy=0;endArrow=ERmany;endFill=0;" parent="1" source="3LCzp29sH1XEy0D0rW8l-65" edge="1">
          <mxGeometry relative="1" as="geometry">
            <mxPoint x="-340" y="-442.5" as="targetPoint" />
          </mxGeometry>
        </mxCell>
        <mxCell id="3LCzp29sH1XEy0D0rW8l-65" value="books" style="shape=rhombus;perimeter=rhombusPerimeter;whiteSpace=wrap;html=1;align=center;fillColor=#f5f5f5;fontColor=#333333;strokeColor=#666666;" parent="1" vertex="1">
          <mxGeometry x="-400" y="-650" width="120" height="60" as="geometry" />
        </mxCell>
        <mxCell id="3LCzp29sH1XEy0D0rW8l-93" value="" style="edgeStyle=orthogonalEdgeStyle;rounded=0;orthogonalLoop=1;jettySize=auto;html=1;endArrow=ERone;endFill=0;" parent="1" source="3LCzp29sH1XEy0D0rW8l-92" target="3LCzp29sH1XEy0D0rW8l-34" edge="1">
          <mxGeometry relative="1" as="geometry" />
        </mxCell>
        <mxCell id="3LCzp29sH1XEy0D0rW8l-99" value="" style="edgeStyle=orthogonalEdgeStyle;rounded=0;orthogonalLoop=1;jettySize=auto;html=1;endArrow=ERoneToMany;endFill=0;" parent="1" source="3LCzp29sH1XEy0D0rW8l-92" target="3LCzp29sH1XEy0D0rW8l-96" edge="1">
          <mxGeometry relative="1" as="geometry" />
        </mxCell>
        <mxCell id="3LCzp29sH1XEy0D0rW8l-92" value="creates" style="rhombus;whiteSpace=wrap;html=1;fillColor=#f5f5f5;fontColor=#333333;strokeColor=#666666;" parent="1" vertex="1">
          <mxGeometry x="480" y="-530" width="120" height="80" as="geometry" />
        </mxCell>
        <mxCell id="3LCzp29sH1XEy0D0rW8l-94" style="rounded=0;orthogonalLoop=1;jettySize=auto;html=1;exitX=1;exitY=0.5;exitDx=0;exitDy=0;entryX=0;entryY=0.5;entryDx=0;entryDy=0;startArrow=none;startFill=0;endArrow=none;endFill=0;" parent="1" source="3LCzp29sH1XEy0D0rW8l-96" target="3LCzp29sH1XEy0D0rW8l-97" edge="1">
          <mxGeometry relative="1" as="geometry" />
        </mxCell>
        <mxCell id="3LCzp29sH1XEy0D0rW8l-95" style="edgeStyle=none;rounded=0;orthogonalLoop=1;jettySize=auto;html=1;exitX=1;exitY=0.5;exitDx=0;exitDy=0;entryX=0;entryY=0.5;entryDx=0;entryDy=0;startArrow=none;startFill=0;endArrow=none;endFill=0;" parent="1" source="3LCzp29sH1XEy0D0rW8l-96" target="3LCzp29sH1XEy0D0rW8l-98" edge="1">
          <mxGeometry relative="1" as="geometry" />
        </mxCell>
        <mxCell id="3LCzp29sH1XEy0D0rW8l-96" value="test" style="whiteSpace=wrap;html=1;align=center;fillColor=#a0522d;fontColor=#ffffff;strokeColor=#6D1F00;gradientColor=default;sketch=1;curveFitting=1;jiggle=2;shadow=1;glass=0;" parent="1" vertex="1">
          <mxGeometry x="485" y="-365" width="110" height="47.5" as="geometry" />
        </mxCell>
        <mxCell id="3LCzp29sH1XEy0D0rW8l-97" value="test_id" style="ellipse;whiteSpace=wrap;html=1;align=center;fontStyle=4;fillColor=#60a917;fontColor=#ffffff;strokeColor=#2D7600;" parent="1" vertex="1">
          <mxGeometry x="640" y="-410" width="100" height="40" as="geometry" />
        </mxCell>
        <mxCell id="3LCzp29sH1XEy0D0rW8l-98" value="test_name" style="ellipse;whiteSpace=wrap;html=1;align=center;fillColor=#1ba1e2;fontColor=#ffffff;strokeColor=#006EAF;" parent="1" vertex="1">
          <mxGeometry x="650" y="-360" width="100" height="40" as="geometry" />
        </mxCell>
        <mxCell id="3LCzp29sH1XEy0D0rW8l-101" value="" style="edgeStyle=orthogonalEdgeStyle;rounded=0;orthogonalLoop=1;jettySize=auto;html=1;endArrow=ERone;endFill=0;" parent="1" source="3LCzp29sH1XEy0D0rW8l-100" target="3LCzp29sH1XEy0D0rW8l-96" edge="1">
          <mxGeometry relative="1" as="geometry" />
        </mxCell>
        <mxCell id="3LCzp29sH1XEy0D0rW8l-112" value="" style="edgeStyle=orthogonalEdgeStyle;rounded=0;orthogonalLoop=1;jettySize=auto;html=1;endArrow=ERoneToMany;endFill=0;entryX=0.465;entryY=-0.027;entryDx=0;entryDy=0;entryPerimeter=0;" parent="1" source="3LCzp29sH1XEy0D0rW8l-100" target="yQo3-17g9ldrHq3aOYve-86" edge="1">
          <mxGeometry relative="1" as="geometry">
            <mxPoint x="540" y="73.75" as="targetPoint" />
          </mxGeometry>
        </mxCell>
        <mxCell id="3LCzp29sH1XEy0D0rW8l-100" value="has" style="shape=rhombus;perimeter=rhombusPerimeter;whiteSpace=wrap;html=1;align=center;fillColor=#f5f5f5;fontColor=#333333;strokeColor=#666666;" parent="1" vertex="1">
          <mxGeometry x="480" y="-150" width="120" height="60" as="geometry" />
        </mxCell>
        <mxCell id="3LCzp29sH1XEy0D0rW8l-104" style="edgeStyle=none;rounded=0;orthogonalLoop=1;jettySize=auto;html=1;exitX=0;exitY=1;exitDx=0;exitDy=0;startArrow=none;startFill=0;endArrow=none;endFill=0;entryX=1;entryY=0;entryDx=0;entryDy=0;" parent="1" source="3LCzp29sH1XEy0D0rW8l-105" target="yQo3-17g9ldrHq3aOYve-86" edge="1">
          <mxGeometry relative="1" as="geometry">
            <mxPoint x="570" y="73.75" as="targetPoint" />
          </mxGeometry>
        </mxCell>
        <mxCell id="3LCzp29sH1XEy0D0rW8l-105" value="question_id" style="ellipse;whiteSpace=wrap;html=1;align=center;fontStyle=4;fillColor=#60a917;fontColor=#ffffff;strokeColor=#2D7600;" parent="1" vertex="1">
          <mxGeometry x="697.5" y="10" width="100" height="40" as="geometry" />
        </mxCell>
        <mxCell id="yQo3-17g9ldrHq3aOYve-98" style="edgeStyle=none;rounded=0;orthogonalLoop=1;jettySize=auto;html=1;endArrow=none;endFill=0;" edge="1" parent="1" target="yQo3-17g9ldrHq3aOYve-86">
          <mxGeometry relative="1" as="geometry">
            <mxPoint x="724.3237413793413" y="158.1674661066968" as="sourcePoint" />
          </mxGeometry>
        </mxCell>
        <mxCell id="yQo3-17g9ldrHq3aOYve-72" style="edgeStyle=none;rounded=0;orthogonalLoop=1;jettySize=auto;html=1;endArrow=none;endFill=0;" edge="1" parent="1" source="3LCzp29sH1XEy0D0rW8l-109" target="yQo3-17g9ldrHq3aOYve-86">
          <mxGeometry relative="1" as="geometry">
            <mxPoint x="600" y="131.25" as="targetPoint" />
          </mxGeometry>
        </mxCell>
        <mxCell id="3LCzp29sH1XEy0D0rW8l-109" value="is_deleted" style="ellipse;whiteSpace=wrap;html=1;align=center;fillColor=#a20025;fontColor=#ffffff;strokeColor=#6F0000;" parent="1" vertex="1">
          <mxGeometry x="727.5" y="216.25" width="79" height="40" as="geometry" />
        </mxCell>
        <mxCell id="yQo3-17g9ldrHq3aOYve-74" style="edgeStyle=none;rounded=0;orthogonalLoop=1;jettySize=auto;html=1;entryX=0.5;entryY=0;entryDx=0;entryDy=0;endArrow=ERoneToMany;endFill=0;exitX=0.457;exitY=1.032;exitDx=0;exitDy=0;exitPerimeter=0;" edge="1" parent="1" source="yQo3-17g9ldrHq3aOYve-86" target="KGp467KdHmyupiXu_vD3-28">
          <mxGeometry relative="1" as="geometry">
            <mxPoint x="540.5227272727275" y="131.25" as="sourcePoint" />
          </mxGeometry>
        </mxCell>
        <mxCell id="3LCzp29sH1XEy0D0rW8l-135" value="" style="rounded=0;orthogonalLoop=1;jettySize=auto;html=1;endArrow=ERone;endFill=0;entryX=0;entryY=0.5;entryDx=0;entryDy=0;" parent="1" source="3LCzp29sH1XEy0D0rW8l-116" target="yQo3-17g9ldrHq3aOYve-86" edge="1">
          <mxGeometry relative="1" as="geometry">
            <mxPoint x="390" y="110" as="targetPoint" />
          </mxGeometry>
        </mxCell>
        <mxCell id="3LCzp29sH1XEy0D0rW8l-136" value="" style="rounded=0;orthogonalLoop=1;jettySize=auto;html=1;endArrow=ERmany;endFill=0;entryX=1;entryY=0.458;entryDx=0;entryDy=0;entryPerimeter=0;exitX=0;exitY=0.5;exitDx=0;exitDy=0;" parent="1" source="3LCzp29sH1XEy0D0rW8l-116" target="yQo3-17g9ldrHq3aOYve-90" edge="1">
          <mxGeometry relative="1" as="geometry">
            <mxPoint x="-16" y="87.5" as="sourcePoint" />
            <mxPoint x="-170" y="103" as="targetPoint" />
          </mxGeometry>
        </mxCell>
        <mxCell id="3LCzp29sH1XEy0D0rW8l-116" value="has" style="shape=rhombus;perimeter=rhombusPerimeter;whiteSpace=wrap;html=1;align=center;fillColor=#f5f5f5;fontColor=#333333;strokeColor=#666666;" parent="1" vertex="1">
          <mxGeometry x="144" y="70" width="105" height="70" as="geometry" />
        </mxCell>
        <mxCell id="3LCzp29sH1XEy0D0rW8l-125" style="edgeStyle=none;rounded=0;orthogonalLoop=1;jettySize=auto;html=1;entryX=0.37;entryY=0.996;entryDx=0;entryDy=0;startArrow=none;startFill=0;endArrow=none;endFill=0;entryPerimeter=0;exitX=0.437;exitY=0;exitDx=0;exitDy=0;exitPerimeter=0;" parent="1" source="yQo3-17g9ldrHq3aOYve-90" target="3LCzp29sH1XEy0D0rW8l-133" edge="1">
          <mxGeometry relative="1" as="geometry">
            <mxPoint x="-84.00000000000045" y="52.5" as="targetPoint" />
            <mxPoint x="-249.72949249920202" y="73.75" as="sourcePoint" />
          </mxGeometry>
        </mxCell>
        <mxCell id="3LCzp29sH1XEy0D0rW8l-128" style="edgeStyle=none;rounded=0;orthogonalLoop=1;jettySize=auto;html=1;exitX=0.25;exitY=1;exitDx=0;exitDy=0;startArrow=none;startFill=0;endArrow=none;endFill=0;" parent="1" source="yQo3-17g9ldrHq3aOYve-90" target="3LCzp29sH1XEy0D0rW8l-132" edge="1">
          <mxGeometry relative="1" as="geometry">
            <mxPoint x="-230" y="131.25" as="sourcePoint" />
          </mxGeometry>
        </mxCell>
        <mxCell id="3LCzp29sH1XEy0D0rW8l-132" value="answer" style="ellipse;whiteSpace=wrap;html=1;align=center;fillColor=#1ba1e2;fontColor=#ffffff;strokeColor=#006EAF;" parent="1" vertex="1">
          <mxGeometry x="-337.5" y="160" width="75" height="45" as="geometry" />
        </mxCell>
        <mxCell id="3LCzp29sH1XEy0D0rW8l-133" value="&lt;u&gt;answer_id&lt;/u&gt;" style="ellipse;whiteSpace=wrap;html=1;align=center;fillColor=#60a917;fontColor=#ffffff;strokeColor=#2D7600;" parent="1" vertex="1">
          <mxGeometry x="-310" width="100" height="40" as="geometry" />
        </mxCell>
        <mxCell id="3LCzp29sH1XEy0D0rW8l-140" value="" style="edgeStyle=orthogonalEdgeStyle;rounded=0;orthogonalLoop=1;jettySize=auto;html=1;endArrow=ERone;endFill=0;" parent="1" source="3LCzp29sH1XEy0D0rW8l-139" target="3LCzp29sH1XEy0D0rW8l-32" edge="1">
          <mxGeometry relative="1" as="geometry" />
        </mxCell>
        <mxCell id="3LCzp29sH1XEy0D0rW8l-144" value="" style="edgeStyle=orthogonalEdgeStyle;rounded=0;orthogonalLoop=1;jettySize=auto;html=1;endArrow=ERone;endFill=0;entryX=0;entryY=0.46;entryDx=0;entryDy=0;entryPerimeter=0;" parent="1" source="3LCzp29sH1XEy0D0rW8l-139" target="yQo3-17g9ldrHq3aOYve-90" edge="1">
          <mxGeometry relative="1" as="geometry">
            <Array as="points">
              <mxPoint x="-610" y="103" />
            </Array>
            <mxPoint x="-310" y="103" as="targetPoint" />
          </mxGeometry>
        </mxCell>
        <mxCell id="3LCzp29sH1XEy0D0rW8l-139" value="has" style="shape=rhombus;perimeter=rhombusPerimeter;whiteSpace=wrap;html=1;align=center;fillColor=#f5f5f5;fontColor=#333333;strokeColor=#666666;" parent="1" vertex="1">
          <mxGeometry x="-670" y="-725" width="120" height="60" as="geometry" />
        </mxCell>
        <mxCell id="3LCzp29sH1XEy0D0rW8l-146" value="fabric" style="whiteSpace=wrap;html=1;align=center;fillColor=#76608a;strokeColor=#432D57;fontColor=#ffffff;gradientColor=default;sketch=1;curveFitting=1;jiggle=2;shadow=1;glass=0;rounded=0;" parent="1" vertex="1">
          <mxGeometry x="178.5" y="520" width="114.5" height="50" as="geometry" />
        </mxCell>
        <mxCell id="3LCzp29sH1XEy0D0rW8l-148" value="" style="edgeStyle=orthogonalEdgeStyle;rounded=0;orthogonalLoop=1;jettySize=auto;html=1;endArrow=ERone;endFill=0;" parent="1" source="3LCzp29sH1XEy0D0rW8l-147" target="3LCzp29sH1XEy0D0rW8l-34" edge="1">
          <mxGeometry relative="1" as="geometry" />
        </mxCell>
        <mxCell id="3LCzp29sH1XEy0D0rW8l-149" value="" style="edgeStyle=orthogonalEdgeStyle;rounded=0;orthogonalLoop=1;jettySize=auto;html=1;endArrow=ERmany;endFill=0;" parent="1" source="3LCzp29sH1XEy0D0rW8l-147" target="3LCzp29sH1XEy0D0rW8l-146" edge="1">
          <mxGeometry relative="1" as="geometry">
            <Array as="points">
              <mxPoint x="1020" y="-625" />
              <mxPoint x="1020" y="545" />
            </Array>
          </mxGeometry>
        </mxCell>
        <mxCell id="3LCzp29sH1XEy0D0rW8l-147" value="creates" style="rhombus;whiteSpace=wrap;html=1;fillColor=#f5f5f5;fontColor=#333333;strokeColor=#666666;" parent="1" vertex="1">
          <mxGeometry x="707" y="-665" width="120" height="80" as="geometry" />
        </mxCell>
        <mxCell id="yQo3-17g9ldrHq3aOYve-78" style="edgeStyle=none;rounded=0;orthogonalLoop=1;jettySize=auto;html=1;entryX=0.5;entryY=0;entryDx=0;entryDy=0;endArrow=ERmany;endFill=0;" edge="1" parent="1" source="3LCzp29sH1XEy0D0rW8l-150" target="3LCzp29sH1XEy0D0rW8l-146">
          <mxGeometry relative="1" as="geometry" />
        </mxCell>
        <mxCell id="3LCzp29sH1XEy0D0rW8l-150" value="chooses" style="shape=rhombus;perimeter=rhombusPerimeter;whiteSpace=wrap;html=1;align=center;fillColor=#f5f5f5;fontColor=#333333;strokeColor=#666666;" parent="1" vertex="1">
          <mxGeometry x="175.75" y="370" width="120" height="60" as="geometry" />
        </mxCell>
        <mxCell id="yQo3-17g9ldrHq3aOYve-77" style="edgeStyle=none;rounded=0;orthogonalLoop=1;jettySize=auto;html=1;endArrow=none;endFill=0;" edge="1" parent="1" source="3LCzp29sH1XEy0D0rW8l-160" target="3LCzp29sH1XEy0D0rW8l-146">
          <mxGeometry relative="1" as="geometry" />
        </mxCell>
        <mxCell id="3LCzp29sH1XEy0D0rW8l-160" value="fabric_name" style="ellipse;whiteSpace=wrap;html=1;align=center;fillColor=#1ba1e2;fontColor=#ffffff;strokeColor=#006EAF;" parent="1" vertex="1">
          <mxGeometry x="44" y="525" width="100" height="40" as="geometry" />
        </mxCell>
        <mxCell id="3LCzp29sH1XEy0D0rW8l-161" value="fabric_id" style="ellipse;whiteSpace=wrap;html=1;align=center;fontStyle=4;fillColor=#60a917;fontColor=#ffffff;strokeColor=#2D7600;" parent="1" vertex="1">
          <mxGeometry x="327" y="450" width="100" height="40" as="geometry" />
        </mxCell>
        <mxCell id="3LCzp29sH1XEy0D0rW8l-163" value="" style="endArrow=none;html=1;rounded=0;exitX=0.889;exitY=-0.06;exitDx=0;exitDy=0;exitPerimeter=0;entryX=0.28;entryY=0.925;entryDx=0;entryDy=0;entryPerimeter=0;" parent="1" source="3LCzp29sH1XEy0D0rW8l-146" target="3LCzp29sH1XEy0D0rW8l-161" edge="1">
          <mxGeometry width="50" height="50" relative="1" as="geometry">
            <mxPoint x="300.5" y="400" as="sourcePoint" />
            <mxPoint x="350.5" y="350" as="targetPoint" />
          </mxGeometry>
        </mxCell>
        <mxCell id="KGp467KdHmyupiXu_vD3-6" value="is_deleted" style="ellipse;whiteSpace=wrap;html=1;align=center;fillColor=#a20025;fontColor=#ffffff;strokeColor=#6F0000;" parent="1" vertex="1">
          <mxGeometry x="640" y="-250" width="100" height="40" as="geometry" />
        </mxCell>
        <mxCell id="KGp467KdHmyupiXu_vD3-7" style="edgeStyle=none;rounded=0;orthogonalLoop=1;jettySize=auto;html=1;exitX=0.994;exitY=0.85;exitDx=0;exitDy=0;entryX=0.011;entryY=0.298;entryDx=0;entryDy=0;startArrow=none;startFill=0;endArrow=none;endFill=0;entryPerimeter=0;exitPerimeter=0;" parent="1" source="3LCzp29sH1XEy0D0rW8l-96" target="KGp467KdHmyupiXu_vD3-6" edge="1">
          <mxGeometry relative="1" as="geometry">
            <mxPoint x="605" y="-331.25" as="sourcePoint" />
            <mxPoint x="660" y="-327.5" as="targetPoint" />
          </mxGeometry>
        </mxCell>
        <mxCell id="yQo3-17g9ldrHq3aOYve-40" style="rounded=0;orthogonalLoop=1;jettySize=auto;html=1;entryX=0.5;entryY=0;entryDx=0;entryDy=0;endArrow=ERoneToMany;endFill=0;" edge="1" parent="1" source="KGp467KdHmyupiXu_vD3-27" target="3LCzp29sH1XEy0D0rW8l-150">
          <mxGeometry relative="1" as="geometry" />
        </mxCell>
        <mxCell id="KGp467KdHmyupiXu_vD3-27" value="question_option" style="whiteSpace=wrap;html=1;align=center;fillColor=#a0522d;fontColor=#ffffff;strokeColor=#6D1F00;gradientColor=default;sketch=1;curveFitting=1;jiggle=2;shadow=1;" parent="1" vertex="1">
          <mxGeometry x="177.75" y="250" width="114.5" height="50" as="geometry" />
        </mxCell>
        <mxCell id="KGp467KdHmyupiXu_vD3-30" value="" style="edgeStyle=orthogonalEdgeStyle;rounded=0;orthogonalLoop=1;jettySize=auto;html=1;endArrow=ERzeroToMany;endFill=0;" parent="1" source="KGp467KdHmyupiXu_vD3-28" target="KGp467KdHmyupiXu_vD3-27" edge="1">
          <mxGeometry relative="1" as="geometry" />
        </mxCell>
        <mxCell id="KGp467KdHmyupiXu_vD3-28" value="has" style="shape=rhombus;perimeter=rhombusPerimeter;whiteSpace=wrap;html=1;align=center;fillColor=#f5f5f5;fontColor=#333333;strokeColor=#666666;" parent="1" vertex="1">
          <mxGeometry x="485" y="240" width="105" height="70" as="geometry" />
        </mxCell>
        <mxCell id="KGp467KdHmyupiXu_vD3-31" value="&lt;u&gt;question_option_id&lt;/u&gt;" style="ellipse;whiteSpace=wrap;html=1;fillColor=#60a917;fontColor=#ffffff;strokeColor=#2D7600;" parent="1" vertex="1">
          <mxGeometry x="37" y="210" width="143" height="51.88" as="geometry" />
        </mxCell>
        <mxCell id="KGp467KdHmyupiXu_vD3-32" value="option_test_name" style="ellipse;whiteSpace=wrap;html=1;fillColor=#1ba1e2;fontColor=#ffffff;strokeColor=#006EAF;" parent="1" vertex="1">
          <mxGeometry x="37" y="290" width="133" height="60.94" as="geometry" />
        </mxCell>
        <mxCell id="KGp467KdHmyupiXu_vD3-34" style="edgeStyle=none;rounded=0;orthogonalLoop=1;jettySize=auto;html=1;entryX=1;entryY=0;entryDx=0;entryDy=0;startArrow=none;startFill=0;endArrow=none;endFill=0;exitX=0;exitY=0.75;exitDx=0;exitDy=0;" parent="1" source="KGp467KdHmyupiXu_vD3-27" target="KGp467KdHmyupiXu_vD3-32" edge="1">
          <mxGeometry relative="1" as="geometry">
            <mxPoint x="-263.00000000000045" y="49.840000000000146" as="targetPoint" />
            <mxPoint x="-239.72949249920248" y="83.75" as="sourcePoint" />
          </mxGeometry>
        </mxCell>
        <mxCell id="KGp467KdHmyupiXu_vD3-35" style="edgeStyle=none;rounded=0;orthogonalLoop=1;jettySize=auto;html=1;entryX=1;entryY=1;entryDx=0;entryDy=0;startArrow=none;startFill=0;endArrow=none;endFill=0;exitX=0;exitY=0.5;exitDx=0;exitDy=0;" parent="1" source="KGp467KdHmyupiXu_vD3-27" target="KGp467KdHmyupiXu_vD3-31" edge="1">
          <mxGeometry relative="1" as="geometry">
            <mxPoint x="89.71303482101393" y="37.29689487599262" as="targetPoint" />
            <mxPoint x="120" y="37.5" as="sourcePoint" />
          </mxGeometry>
        </mxCell>
        <mxCell id="23NOyq48g4CdFFDB8XeQ-1" value="" style="endArrow=none;html=1;rounded=0;" parent="1" edge="1">
          <mxGeometry relative="1" as="geometry">
            <mxPoint x="130" y="-730" as="sourcePoint" />
            <mxPoint x="330" y="-730" as="targetPoint" />
            <Array as="points">
              <mxPoint x="230" y="-710" />
            </Array>
          </mxGeometry>
        </mxCell>
        <mxCell id="23NOyq48g4CdFFDB8XeQ-3" value="image" style="ellipse;whiteSpace=wrap;html=1;align=center;fillColor=#6a00ff;fontColor=#ffffff;strokeColor=#3700CC;" parent="1" vertex="1">
          <mxGeometry x="-205" y="150" width="75" height="45" as="geometry" />
        </mxCell>
        <mxCell id="23NOyq48g4CdFFDB8XeQ-6" style="edgeStyle=orthogonalEdgeStyle;rounded=0;orthogonalLoop=1;jettySize=auto;html=1;exitX=0.5;exitY=1;exitDx=0;exitDy=0;entryX=0;entryY=0.75;entryDx=0;entryDy=0;endArrow=ERone;endFill=0;" parent="1" source="23NOyq48g4CdFFDB8XeQ-5" target="3LCzp29sH1XEy0D0rW8l-53" edge="1">
          <mxGeometry relative="1" as="geometry" />
        </mxCell>
        <mxCell id="23NOyq48g4CdFFDB8XeQ-9" style="edgeStyle=orthogonalEdgeStyle;rounded=0;orthogonalLoop=1;jettySize=auto;html=1;exitX=0.5;exitY=0;exitDx=0;exitDy=0;endArrow=ERmany;endFill=0;" parent="1" source="23NOyq48g4CdFFDB8XeQ-5" edge="1">
          <mxGeometry relative="1" as="geometry">
            <mxPoint x="-340" y="-392.5" as="targetPoint" />
          </mxGeometry>
        </mxCell>
        <mxCell id="23NOyq48g4CdFFDB8XeQ-5" value="books" style="shape=rhombus;perimeter=rhombusPerimeter;whiteSpace=wrap;html=1;align=center;fillColor=#f5f5f5;fontColor=#333333;strokeColor=#666666;" parent="1" vertex="1">
          <mxGeometry x="-350" y="-230" width="120" height="60" as="geometry" />
        </mxCell>
        <mxCell id="8s-mO0Hed5lhPNF_CUSX-1" value="&lt;u&gt;service_id&lt;/u&gt;" style="ellipse;whiteSpace=wrap;html=1;fillColor=#60a917;strokeColor=#2D7600;fontColor=#ffffff;" parent="1" vertex="1">
          <mxGeometry x="247" y="-180" width="80" height="50" as="geometry" />
        </mxCell>
        <mxCell id="8s-mO0Hed5lhPNF_CUSX-2" value="" style="endArrow=none;html=1;rounded=0;entryX=0.75;entryY=0;entryDx=0;entryDy=0;" parent="1" target="3LCzp29sH1XEy0D0rW8l-53" edge="1">
          <mxGeometry width="50" height="50" relative="1" as="geometry">
            <mxPoint x="267.77891961861314" y="-129.212537707735" as="sourcePoint" />
            <mxPoint x="250" y="-125" as="targetPoint" />
          </mxGeometry>
        </mxCell>
        <mxCell id="8s-mO0Hed5lhPNF_CUSX-3" style="edgeStyle=none;rounded=0;orthogonalLoop=1;jettySize=auto;html=1;startArrow=none;startFill=0;endArrow=none;endFill=0;entryX=0.5;entryY=0;entryDx=0;entryDy=0;exitX=0.658;exitY=0.984;exitDx=0;exitDy=0;exitPerimeter=0;" parent="1" source="yQo3-17g9ldrHq3aOYve-90" target="23NOyq48g4CdFFDB8XeQ-3" edge="1">
          <mxGeometry relative="1" as="geometry">
            <mxPoint x="-204" y="132" as="sourcePoint" />
            <mxPoint x="-265.88029675915595" y="175.27164054225432" as="targetPoint" />
          </mxGeometry>
        </mxCell>
        <mxCell id="yQo3-17g9ldrHq3aOYve-61" style="edgeStyle=none;rounded=0;orthogonalLoop=1;jettySize=auto;html=1;entryX=1;entryY=0.5;entryDx=0;entryDy=0;endArrow=ERoneToMany;endFill=0;" edge="1" parent="1" source="yQo3-17g9ldrHq3aOYve-1" target="yQo3-17g9ldrHq3aOYve-60">
          <mxGeometry relative="1" as="geometry" />
        </mxCell>
        <mxCell id="yQo3-17g9ldrHq3aOYve-1" value="&lt;font style=&quot;font-size: 13px;&quot;&gt;&lt;font color=&quot;#000000&quot;&gt;photo&lt;/font&gt;&lt;br&gt;&lt;/font&gt;" style="rounded=0;whiteSpace=wrap;html=1;fillColor=#FFCC99;strokeColor=#36393d;glass=0;shadow=1;gradientColor=default;sketch=1;curveFitting=1;jiggle=2;" vertex="1" parent="1">
          <mxGeometry x="912.5" y="-810" width="120" height="50" as="geometry" />
        </mxCell>
        <mxCell id="yQo3-17g9ldrHq3aOYve-2" style="rounded=0;orthogonalLoop=1;jettySize=auto;html=1;entryX=0.5;entryY=0;entryDx=0;entryDy=0;endArrow=none;endFill=0;" edge="1" parent="1" source="yQo3-17g9ldrHq3aOYve-3" target="yQo3-17g9ldrHq3aOYve-1">
          <mxGeometry relative="1" as="geometry" />
        </mxCell>
        <mxCell id="yQo3-17g9ldrHq3aOYve-3" value="photo_id" style="ellipse;whiteSpace=wrap;html=1;fillColor=#60a917;fontColor=#ffffff;strokeColor=#2D7600;" vertex="1" parent="1">
          <mxGeometry x="912.5" y="-900" width="62" height="40" as="geometry" />
        </mxCell>
        <mxCell id="yQo3-17g9ldrHq3aOYve-6" style="rounded=0;orthogonalLoop=1;jettySize=auto;html=1;exitX=0.5;exitY=1;exitDx=0;exitDy=0;entryX=0.75;entryY=0;entryDx=0;entryDy=0;endArrow=none;endFill=0;" edge="1" parent="1" source="yQo3-17g9ldrHq3aOYve-7" target="yQo3-17g9ldrHq3aOYve-1">
          <mxGeometry relative="1" as="geometry" />
        </mxCell>
        <mxCell id="yQo3-17g9ldrHq3aOYve-7" value="photo_name" style="ellipse;whiteSpace=wrap;html=1;fillColor=#1ba1e2;fontColor=#ffffff;strokeColor=#006EAF;" vertex="1" parent="1">
          <mxGeometry x="998" y="-890" width="62" height="40" as="geometry" />
        </mxCell>
        <mxCell id="yQo3-17g9ldrHq3aOYve-8" style="rounded=0;orthogonalLoop=1;jettySize=auto;html=1;entryX=1;entryY=0.25;entryDx=0;entryDy=0;endArrow=none;endFill=0;" edge="1" parent="1" source="yQo3-17g9ldrHq3aOYve-9" target="yQo3-17g9ldrHq3aOYve-1">
          <mxGeometry relative="1" as="geometry" />
        </mxCell>
        <mxCell id="yQo3-17g9ldrHq3aOYve-9" value="image" style="ellipse;whiteSpace=wrap;html=1;fillColor=#6a00ff;fontColor=#ffffff;strokeColor=#3700CC;" vertex="1" parent="1">
          <mxGeometry x="1060" y="-867.5" width="62" height="40" as="geometry" />
        </mxCell>
        <mxCell id="yQo3-17g9ldrHq3aOYve-10" style="rounded=0;orthogonalLoop=1;jettySize=auto;html=1;endArrow=none;endFill=0;" edge="1" parent="1" source="yQo3-17g9ldrHq3aOYve-11" target="yQo3-17g9ldrHq3aOYve-1">
          <mxGeometry relative="1" as="geometry" />
        </mxCell>
        <mxCell id="yQo3-17g9ldrHq3aOYve-11" value="is_deleted" style="ellipse;whiteSpace=wrap;html=1;fillColor=#a20025;fontColor=#ffffff;strokeColor=#6F0000;" vertex="1" parent="1">
          <mxGeometry x="1071" y="-810" width="62" height="40" as="geometry" />
        </mxCell>
        <mxCell id="yQo3-17g9ldrHq3aOYve-81" style="edgeStyle=none;rounded=0;orthogonalLoop=1;jettySize=auto;html=1;entryX=1;entryY=0.5;entryDx=0;entryDy=0;endArrow=none;endFill=0;" edge="1" parent="1" source="yQo3-17g9ldrHq3aOYve-13" target="3LCzp29sH1XEy0D0rW8l-40">
          <mxGeometry relative="1" as="geometry" />
        </mxCell>
        <mxCell id="yQo3-17g9ldrHq3aOYve-13" value="city" style="ellipse;whiteSpace=wrap;html=1;fillColor=#647687;fontColor=#ffffff;strokeColor=#314354;" vertex="1" parent="1">
          <mxGeometry x="316.25" y="-410" width="92.5" height="48.75" as="geometry" />
        </mxCell>
        <mxCell id="yQo3-17g9ldrHq3aOYve-58" style="edgeStyle=none;rounded=0;orthogonalLoop=1;jettySize=auto;html=1;entryX=1;entryY=0.25;entryDx=0;entryDy=0;endArrow=none;endFill=0;" edge="1" parent="1" source="yQo3-17g9ldrHq3aOYve-17" target="3LCzp29sH1XEy0D0rW8l-1">
          <mxGeometry relative="1" as="geometry" />
        </mxCell>
        <mxCell id="yQo3-17g9ldrHq3aOYve-17" value="phone" style="ellipse;whiteSpace=wrap;html=1;fillColor=#647687;fontColor=#ffffff;strokeColor=#314354;" vertex="1" parent="1">
          <mxGeometry x="293" y="-915" width="62" height="40" as="geometry" />
        </mxCell>
        <mxCell id="yQo3-17g9ldrHq3aOYve-19" value="&lt;font color=&quot;#000000&quot;&gt;visit&lt;/font&gt;" style="whiteSpace=wrap;html=1;align=center;fillColor=#ffcccc;strokeColor=#36393d;shadow=1;sketch=1;curveFitting=1;jiggle=2;glass=1;gradientColor=default;" vertex="1" parent="1">
          <mxGeometry x="-400" y="-440" width="120" height="50" as="geometry" />
        </mxCell>
        <mxCell id="yQo3-17g9ldrHq3aOYve-28" style="rounded=0;orthogonalLoop=1;jettySize=auto;html=1;exitX=1;exitY=0.5;exitDx=0;exitDy=0;entryX=0.404;entryY=0.986;entryDx=0;entryDy=0;entryPerimeter=0;endArrow=none;endFill=0;" edge="1" parent="1" source="yQo3-17g9ldrHq3aOYve-22" target="yQo3-17g9ldrHq3aOYve-19">
          <mxGeometry relative="1" as="geometry" />
        </mxCell>
        <mxCell id="yQo3-17g9ldrHq3aOYve-22" value="&lt;u&gt;visit_id&lt;/u&gt;" style="ellipse;whiteSpace=wrap;html=1;align=center;fillColor=#60a917;fontColor=#ffffff;strokeColor=#2D7600;" vertex="1" parent="1">
          <mxGeometry x="-510" y="-370" width="90" height="40" as="geometry" />
        </mxCell>
        <mxCell id="yQo3-17g9ldrHq3aOYve-26" value="date" style="ellipse;whiteSpace=wrap;html=1;align=center;fillColor=#1ba1e2;fontColor=#ffffff;strokeColor=#006EAF;" vertex="1" parent="1">
          <mxGeometry x="-490" y="-523.75" width="115" height="48.75" as="geometry" />
        </mxCell>
        <mxCell id="yQo3-17g9ldrHq3aOYve-27" value="" style="endArrow=none;html=1;rounded=0;exitX=0.661;exitY=0.964;exitDx=0;exitDy=0;exitPerimeter=0;" edge="1" parent="1" source="yQo3-17g9ldrHq3aOYve-26" target="yQo3-17g9ldrHq3aOYve-19">
          <mxGeometry width="50" height="50" relative="1" as="geometry">
            <mxPoint x="102.68852059275378" y="-452.3645472815583" as="sourcePoint" />
            <mxPoint x="48.499999999999545" y="-445" as="targetPoint" />
          </mxGeometry>
        </mxCell>
        <mxCell id="yQo3-17g9ldrHq3aOYve-33" style="rounded=0;orthogonalLoop=1;jettySize=auto;html=1;entryX=1;entryY=0.5;entryDx=0;entryDy=0;endArrow=none;endFill=0;" edge="1" parent="1" source="yQo3-17g9ldrHq3aOYve-32" target="3LCzp29sH1XEy0D0rW8l-96">
          <mxGeometry relative="1" as="geometry" />
        </mxCell>
        <mxCell id="yQo3-17g9ldrHq3aOYve-32" value="type" style="ellipse;whiteSpace=wrap;html=1;align=center;fillColor=#76608a;fontColor=#ffffff;strokeColor=#432D57;" vertex="1" parent="1">
          <mxGeometry x="650" y="-305" width="100" height="40" as="geometry" />
        </mxCell>
        <mxCell id="yQo3-17g9ldrHq3aOYve-36" style="rounded=0;orthogonalLoop=1;jettySize=auto;html=1;endArrow=none;endFill=0;entryX=1;entryY=0.25;entryDx=0;entryDy=0;" edge="1" parent="1" source="yQo3-17g9ldrHq3aOYve-35" target="yQo3-17g9ldrHq3aOYve-86">
          <mxGeometry relative="1" as="geometry">
            <mxPoint x="600" y="99.43181818181802" as="targetPoint" />
          </mxGeometry>
        </mxCell>
        <mxCell id="yQo3-17g9ldrHq3aOYve-35" value="question_name" style="ellipse;whiteSpace=wrap;html=1;align=center;fillColor=#1ba1e2;fontColor=#ffffff;strokeColor=#006EAF;" vertex="1" parent="1">
          <mxGeometry x="710" y="62.5" width="100" height="57.5" as="geometry" />
        </mxCell>
        <mxCell id="yQo3-17g9ldrHq3aOYve-60" value="takes" style="rhombus;whiteSpace=wrap;html=1;fillColor=#f5f5f5;fontColor=#333333;strokeColor=#666666;" vertex="1" parent="1">
          <mxGeometry x="560" y="-827.5" width="120" height="80" as="geometry" />
        </mxCell>
        <mxCell id="yQo3-17g9ldrHq3aOYve-76" style="edgeStyle=none;rounded=0;orthogonalLoop=1;jettySize=auto;html=1;exitX=1;exitY=0.5;exitDx=0;exitDy=0;endArrow=none;endFill=0;" edge="1" parent="1" source="yQo3-17g9ldrHq3aOYve-75" target="3LCzp29sH1XEy0D0rW8l-146">
          <mxGeometry relative="1" as="geometry" />
        </mxCell>
        <mxCell id="yQo3-17g9ldrHq3aOYve-75" value="fabric_img" style="ellipse;whiteSpace=wrap;html=1;align=center;fillColor=#6a00ff;fontColor=#ffffff;strokeColor=#3700CC;" vertex="1" parent="1">
          <mxGeometry x="66.5" y="610" width="100" height="40" as="geometry" />
        </mxCell>
        <mxCell id="yQo3-17g9ldrHq3aOYve-86" value="question" style="whiteSpace=wrap;html=1;align=center;fillColor=#a0522d;fontColor=#ffffff;strokeColor=#6D1F00;gradientColor=default;shadow=1;sketch=1;curveFitting=1;jiggle=2;glass=0;" vertex="1" parent="1">
          <mxGeometry x="487.5" y="80" width="110" height="50" as="geometry" />
        </mxCell>
        <mxCell id="yQo3-17g9ldrHq3aOYve-90" value="answer" style="whiteSpace=wrap;html=1;align=center;fillColor=#a0522d;fontColor=#ffffff;strokeColor=#6D1F00;shadow=1;sketch=1;curveFitting=1;jiggle=2;glass=1;gradientColor=default;" vertex="1" parent="1">
          <mxGeometry x="-290" y="80" width="114.5" height="50" as="geometry" />
        </mxCell>
        <mxCell id="yQo3-17g9ldrHq3aOYve-99" value="question_text" style="ellipse;whiteSpace=wrap;html=1;align=center;fillColor=#1ba1e2;fontColor=#ffffff;strokeColor=#006EAF;" vertex="1" parent="1">
          <mxGeometry x="717" y="130" width="100" height="57.5" as="geometry" />
        </mxCell>
      </root>
    </mxGraphModel>
  </diagram>
</mxfile>
